<?xml version="1.0" encoding="UTF-8"?>
<!DOCTYPE svg PUBLIC "-//W3C//DTD SVG 1.1//EN" "http://www.w3.org/Graphics/SVG/1.1/DTD/svg11.dtd">
<!-- Creator: CorelDRAW 2021 (64-Bit) -->
<svg xmlns="http://www.w3.org/2000/svg" xml:space="preserve" width="210mm" height="210mm" version="1.1" style="shape-rendering:geometricPrecision; text-rendering:geometricPrecision; image-rendering:optimizeQuality; fill-rule:evenodd; clip-rule:evenodd"
viewBox="0 0 14991.91 14991.91"
 xmlns:xlink="http://www.w3.org/1999/xlink"
 xmlns:xodm="http://www.corel.com/coreldraw/odm/2003">
 <defs>
  <style type="text/css">
   <![CDATA[
    .fil0 {fill:#2196F3;fill-rule:nonzero}
    .fil2 {fill:#2B3B4E;fill-rule:nonzero}
    .fil1 {fill:#324A5E;fill-rule:nonzero}
   ]]>
  </style>
 </defs>
 <g id="Слой_x0020_1">
  <metadata id="CorelCorpID_0Corel-Layer"/>
  <circle class="fil0" cx="7495.96" cy="7495.96" r="7495.96"/>
  <path class="fil1" d="M9515 9295.75c-84.39,-174.05 -260.81,-284.58 -454.24,-284.58l-1060.03 0 0 -5518.14 -1009.56 0 0 5518.08 -1060.04 -0.01c-193.43,0 -369.85,110.53 -454.24,284.58 -84.36,174.05 -61.85,381.01 57.95,532.88l1564.81 1982.97c95.72,121.31 241.75,192.05 396.29,192.05 154.55,0 300.54,-70.77 396.29,-192.05l1564.81 -1982.97c119.79,-151.82 142.3,-358.78 57.94,-532.82z"/>
  <path class="fil2" d="M9515 9295.75c-84.39,-174.05 -260.81,-284.58 -454.24,-284.58l-1060.03 0 0 -5518.14 -521.58 0 0 8509.64c5.59,0.21 11.16,0.96 16.81,0.96 154.57,0 300.54,-70.77 396.29,-192.05l1564.81 -1982.97c119.79,-151.85 142.3,-358.81 57.94,-532.86z"/>
 </g>
</svg>
