<?xml version="1.0" encoding="UTF-8"?>
<!DOCTYPE svg PUBLIC "-//W3C//DTD SVG 1.1//EN" "http://www.w3.org/Graphics/SVG/1.1/DTD/svg11.dtd">
<!-- Creator: CorelDRAW 2021 (64-Bit) -->
<svg xmlns="http://www.w3.org/2000/svg" xml:space="preserve" width="210mm" height="210mm" version="1.1" style="shape-rendering:geometricPrecision; text-rendering:geometricPrecision; image-rendering:optimizeQuality; fill-rule:evenodd; clip-rule:evenodd"
viewBox="0 0 8507.67 8507.67"
 xmlns:xlink="http://www.w3.org/1999/xlink"
 xmlns:xodm="http://www.corel.com/coreldraw/odm/2003">
 <defs>
  <style type="text/css">
   <![CDATA[
    .fil0 {fill:#2196F3;fill-rule:nonzero}
    .fil2 {fill:#2B3B4E;fill-rule:nonzero}
    .fil1 {fill:#324A5E;fill-rule:nonzero}
   ]]>
  </style>
 </defs>
 <g id="Слой_x0020_1">
  <metadata id="CorelCorpID_0Corel-Layer"/>
  <circle class="fil0" cx="4253.83" cy="4253.83" r="4253.83"/>
  <path class="fil1" d="M5531.84 1756.78l-586.94 299.23 296.77 582.09c-308.85,-110.09 -640.88,-150.59 -976.64,-115.22 -589.72,62.1 -1119.97,350.16 -1493.05,811.08 -770.13,951.48 -622.57,2352.16 328.91,3122.28l414.53 -512.09c-669.13,-541.6 -772.89,-1526.56 -231.32,-2195.69 262.36,-324.12 635.22,-526.69 1049.93,-570.38 246.52,-25.99 490.09,6.5 715.32,91.84l-597.51 304.61 299.23 586.98 1592.76 -812.03 -812 -1592.72z"/>
  <path class="fil2" d="M2771.99 3334.01c-770.13,951.48 -622.57,2352.16 328.91,3122.28l414.53 -512.09c-664.2,-537.61 -770.99,-1511.95 -242.8,-2180.74l-486.23 -446.39c-4.75,5.73 -9.74,11.17 -14.41,16.93z"/>
 </g>
</svg>
